# xmcd CD database file
#
# Track frame offsets:
#	150
#	13289
#	26617
#	40508
#	53734
#	67538
#	81302
#	95628
#	115204
#	129467
#	143005
#	157556
#	172419
#	187015
#	201191
#	214492
#	224156
#
# Disc length: 3207 seconds
#
# Revision: 3
# Processed by: cddbd v1.5.2PL0 Copyright (c) Steve Scherf et al.
# Submitted via: CDex 1.70beta2
#
DISCID=f70c8511
DTITLE=Leadbelly - Death Letter Blues - CD1
DYEAR=1900
DGENRE=Blues
TTITLE0=Good Morning Blues
TTITLE1=Packin' Trunk
TTITLE2=New York City
TTITLE3=My Baby Quit Me
TTITLE4=Roberta Pt 1
TTITLE5=Fort Worth And Dallas Blues
TTITLE6=TB Woman Blues
TTITLE7=John Hardy
TTITLE8=The Red Cross Store Blues
TTITLE9=Death Letter Blues Pt 1
TTITLE10=I'm On My Last Go Round
TTITLE11=The Borgeois Blues
TTITLE12=Easy Rider
TTITLE13=Four Day Worry Blues
TTITLE14=Ox Drivin' Blues
TTITLE15=I'm Sorry Mama
TTITLE16=Irene Goodnight
EXTD=
EXTT0=
EXTT1=
EXTT2=
EXTT3=
EXTT4=
EXTT5=
EXTT6=
EXTT7=
EXTT8=
EXTT9=
EXTT10=
EXTT11=
EXTT12=
EXTT13=
EXTT14=
EXTT15=
EXTT16=
PLAYORDER=
